<?xml version="1.0" standalone="no"?>
<!DOCTYPE svg PUBLIC "-//W3C//DTD SVG 20010904//EN"
 "http://www.w3.org/TR/2001/REC-SVG-20010904/DTD/svg10.dtd">
<svg version="1.0" xmlns="http://www.w3.org/2000/svg"
 width="120.000000pt" height="120.000000pt" viewBox="0 0 120.000000 120.000000"
 preserveAspectRatio="xMidYMid meet">

<g transform="translate(0.000000,120.000000) scale(0.100000,-0.100000)"
fill="#000000" stroke="none">
<path d="M360 1098 c-114 -27 -124 -38 -67 -71 45 -27 68 -54 81 -94 7 -23 6
-23 -74 -23 -87 0 -131 -15 -150 -51 -17 -32 6 -69 124 -204 88 -100 106 -126
106 -152 l0 -33 -56 0 c-35 0 -67 6 -85 17 l-29 17 -57 -56 c-82 -82 -76 -88
92 -88 l135 0 0 -56 c0 -53 2 -57 53 -111 63 -67 133 -117 153 -109 11 4 14
34 14 154 0 117 3 156 16 181 9 18 14 46 12 63 l-5 32 23 -28 c23 -26 24 -33
24 -209 0 -100 4 -188 9 -196 13 -20 91 27 163 99 55 55 57 60 60 115 l3 58
40 12 c55 16 85 36 85 57 0 15 -9 18 -49 18 -85 0 -81 -10 -81 191 0 173 1
179 20 179 12 0 32 -7 46 -17 25 -16 26 -16 81 39 31 32 53 61 49 67 -5 7 -43
11 -102 11 -72 0 -94 3 -94 14 0 25 46 81 83 101 58 31 45 46 -67 72 -96 22
-102 23 -150 7 -95 -31 -96 -31 -96 -142 -1 -91 -3 -101 -35 -162 l-34 -65 -1
57 c0 31 5 69 12 83 9 20 9 28 0 34 -6 4 -12 40 -14 85 l-3 78 -45 18 c-73 29
-101 30 -190 8z m168 -12 c44 -15 52 -21 52 -42 0 -14 -4 -23 -8 -20 -5 3 -16
-6 -26 -20 -22 -29 -36 -31 -36 -5 0 10 -9 21 -21 24 -19 5 -20 4 -5 -18 18
-27 21 -55 6 -55 -5 0 -10 5 -10 10 0 17 -17 11 -49 -15 l-30 -26 -17 33 c-9
18 -27 45 -41 59 l-24 26 25 -4 c14 -3 26 -1 26 5 0 11 -31 21 -70 23 -14 1
16 12 65 24 50 13 95 22 100 21 6 -2 34 -11 63 -20z m376 3 c78 -21 118 -39
85 -39 -20 0 -85 -68 -98 -102 -9 -25 -12 -26 -47 -16 -27 7 -39 7 -44 -2 -5
-8 -9 -7 -14 5 -11 29 -7 52 15 79 l20 26 -34 0 c-19 0 -49 5 -68 12 l-33 11
59 23 c74 28 63 28 159 3z m-294 -197 c0 -4 -22 -30 -50 -57 -47 -46 -50 -48
-68 -32 -16 14 -42 17 -175 17 -98 0 -157 4 -157 10 0 6 4 10 8 10 5 0 17 7
28 16 18 15 18 15 -3 9 -31 -9 -29 1 5 19 21 12 68 15 220 16 105 0 192 -4
192 -8z m470 1 c0 -10 -82 -93 -92 -93 -4 0 -5 6 -2 14 3 8 -3 19 -15 25 -24
13 -247 15 -255 2 -8 -13 -46 -21 -46 -10 0 5 11 14 24 20 13 6 27 20 29 30 5
18 17 19 181 19 97 0 176 -3 176 -7z m-126 -61 c3 -5 -46 -9 -109 -10 -67 -1
-116 2 -120 8 -4 6 34 10 109 10 63 0 117 -4 120 -8z m-474 -182 c99 -114 130
-157 130 -178 0 -15 -4 -22 -8 -17 -4 6 -17 15 -28 22 -20 11 -22 9 -28 -17
-8 -41 -38 -53 -130 -51 -101 3 -94 -8 10 -16 44 -3 81 -7 83 -9 2 -2 -87 -4
-199 -4 l-204 0 53 54 c52 52 55 54 77 39 15 -10 58 -16 131 -19 89 -3 107 -7
105 -19 -2 -8 4 -15 12 -15 15 0 46 26 46 38 0 14 -34 57 -134 171 -97 110
-150 150 -198 151 -10 0 -18 5 -18 10 0 6 35 10 85 10 l84 0 131 -150z m310
141 c0 -5 -13 -11 -30 -14 -16 -4 -30 -11 -30 -17 0 -6 9 -6 26 0 23 9 25 8
19 -7 -14 -36 -17 -140 -5 -178 27 -81 126 -155 208 -155 34 0 35 -1 17 -13
-26 -18 -147 -7 -191 16 -18 9 -50 37 -72 62 -54 62 -70 129 -53 222 6 36 11
66 9 68 -2 1 -12 7 -23 13 -16 9 -6 11 53 12 39 0 72 -4 72 -9z m-465 -151
c47 -54 85 -100 85 -104 0 -6 -126 134 -184 204 -56 67 23 -13 99 -100z m295
-115 c0 -5 -5 -3 -10 5 -5 8 -10 20 -10 25 0 6 5 3 10 -5 5 -8 10 -19 10 -25z
m161 -100 c36 -19 77 -35 90 -35 19 -1 21 -3 9 -9 -40 -24 -152 26 -197 87
-41 56 -46 78 -6 35 21 -23 68 -58 104 -78z m99 -131 c0 -54 -1 -57 -54 -108
-44 -44 -126 -103 -126 -92 0 2 6 16 14 32 8 16 26 57 41 91 26 60 28 62 59
56 25 -5 29 -3 19 8 -19 19 -16 26 12 33 14 4 25 13 25 21 0 8 2 15 5 15 3 0
5 -25 5 -56z m-332 -67 c2 24 9 44 18 47 11 4 14 -10 14 -84 0 -50 -3 -90 -6
-90 -23 0 -185 143 -173 153 2 2 24 11 49 18 l45 14 25 -50 24 -50 4 42z"/>
<path d="M935 1050 c-3 -5 1 -10 9 -10 8 0 18 5 21 10 3 6 -1 10 -9 10 -8 0
-18 -4 -21 -10z"/>
<path d="M238 843 c12 -2 32 -2 45 0 12 2 2 4 -23 4 -25 0 -35 -2 -22 -4z"/>
<path d="M360 713 c0 -5 19 -28 41 -53 l40 -45 -36 53 c-36 50 -45 60 -45 45z"/>
<path d="M190 400 c-20 -6 -21 -8 -5 -8 11 0 31 4 45 8 20 6 21 8 5 8 -11 0
-31 -4 -45 -8z"/>
<path d="M711 605 c-1 -64 60 -151 122 -174 45 -17 55 -12 17 8 -41 22 -75 59
-85 92 -4 13 -13 27 -19 31 -6 4 -16 22 -23 40 l-11 33 -1 -30z"/>
<path d="M500 211 c0 -6 4 -13 10 -16 6 -3 7 1 4 9 -7 18 -14 21 -14 7z"/>
<path d="M520 172 c0 -5 12 -19 27 -33 l26 -24 -23 33 c-25 33 -30 38 -30 24z"/>
</g>
</svg>
